<svg width="140" height="41" viewBox="0 0 140 41" fill="none" xmlns="http://www.w3.org/2000/svg">
<path d="M104.926 3.10107V37.9298H111.212V13.9744H111.382L121.745 31.4737H122.425L133.128 13.9744H133.298V37.9298H139.584V3.10107H132.449L122.765 20.6004H122.595L112.401 3.10107H104.926ZM0.779297 3.10107V37.9298H7.40524V14.3142H7.57524L23.7153 37.9298H30.6811V3.10107H24.0552V26.3768H23.8852L7.91497 3.10107H0.779297ZM63.3011 24.6779C63.3011 33.6824 68.7377 38.7792 77.9121 38.7792C86.407 38.7792 92.6931 33.6824 92.6931 24.6779V3.10107H85.7273V24.6779C85.7273 28.9253 83.6887 32.4931 77.9121 32.4931C72.1356 32.4931 70.2668 28.4156 70.2668 24.1682V3.10107H63.3011V24.6779ZM44.1029 3.10107V37.9298H51.0687V3.10107H44.1029Z" fill="#0B0E58"/>
</svg>
